<svg width="105" height="106" viewBox="0 0 105 106" fill="none" xmlns="http://www.w3.org/2000/svg">
<g filter="url(#filter0_b_50_602)">
<rect y="0.5" width="105" height="105" rx="52.5" fill="url(#paint0_linear_50_602)"/>
<path fill-rule="evenodd" clip-rule="evenodd" d="M41.8457 24.4203C39.3083 25.3074 37.4919 27.3223 36.9517 29.8497C36.7784 30.6591 36.6819 36.5279 36.6819 46.2362V61.3614L32.0012 61.4455C27.7424 61.5217 27.2563 61.5769 26.6043 62.0569C25.067 63.1893 25 63.5931 25 71.7196C25 79.8464 25.067 80.2501 26.6046 81.3823C27.2868 81.8844 27.6913 81.9132 34.9857 81.9789C43.4389 82.0551 43.7634 82.0042 44.918 80.4272C45.4069 79.7592 45.4493 79.3055 45.5209 73.9946L45.5979 68.2804H60.2696C76.731 68.2804 76.3351 68.3204 78.4583 66.4456C79.1011 65.878 79.9361 64.8261 80.3135 64.1082L81 62.8031V46.2439V29.6846L80.2914 28.2371C79.4886 26.5972 78.2581 25.4006 76.5684 24.6165C75.4362 24.0909 75.0835 24.0787 59.2854 24.0209C44.3184 23.9658 43.0637 23.9946 41.8457 24.4203ZM42.1423 27.843C41.4729 28.2185 40.9316 28.8004 40.555 29.5486L39.9836 30.6843V46.0431V61.4019L41.063 61.4035C43.5191 61.4065 45.1125 62.4699 45.4622 64.339L45.6276 65.2233L59.6311 65.2218C68.6194 65.221 73.9784 65.1247 74.5941 64.9532C75.8914 64.592 77.2524 63.3401 77.5813 62.2062C77.7631 61.5792 77.8266 56.144 77.7751 45.5871L77.6984 29.8994L77.0142 28.9998C75.6427 27.1964 76.3503 27.2639 58.8661 27.2685L43.1582 27.2728L42.1423 27.843ZM67.9205 35.0129C66.1744 35.4661 64.4314 35.9162 64.0474 36.0136C63.0869 36.2571 63.1722 36.8688 64.2379 37.3786C64.7268 37.6124 65.1268 37.8893 65.1268 37.9938C65.1268 38.0985 60.8374 42.3476 55.5947 47.4364C50.3522 52.5252 45.9966 56.9477 45.9158 57.2639C45.6235 58.4083 46.8804 59.5193 47.9931 59.0999C48.2674 58.9968 52.7482 54.765 57.9508 49.6963C63.1534 44.6274 67.51 40.5421 67.6322 40.618C67.7544 40.6937 67.9974 41.1021 68.1721 41.5255C68.4977 42.3137 69.0186 42.5252 69.3419 42.0004C69.7795 41.2901 71.6348 34.1447 71.376 34.1661C71.2216 34.1788 69.6665 34.5599 67.9205 35.0129ZM27.1466 63.5559L26.5231 64.1811V71.7196V79.2581L27.1466 79.8833L27.7698 80.5087H35.2851H42.8004L43.4236 79.8833L44.0471 79.2581V71.7196V64.1811L43.4236 63.5559L42.8004 62.9305H35.2851H27.7698L27.1466 63.5559Z" fill="white"/>
</g>
<defs>
<filter id="filter0_b_50_602" x="-4" y="-3.5" width="113" height="113" filterUnits="userSpaceOnUse" color-interpolation-filters="sRGB">
<feFlood flood-opacity="0" result="BackgroundImageFix"/>
<feGaussianBlur in="BackgroundImageFix" stdDeviation="2"/>
<feComposite in2="SourceAlpha" operator="in" result="effect1_backgroundBlur_50_602"/>
<feBlend mode="normal" in="SourceGraphic" in2="effect1_backgroundBlur_50_602" result="shape"/>
</filter>
<linearGradient id="paint0_linear_50_602" x1="3.91155e-07" y1="53" x2="105" y2="53" gradientUnits="userSpaceOnUse">
<stop stop-color="#FFDA00"/>
<stop offset="1" stop-color="#F6931F"/>
</linearGradient>
</defs>
</svg>
