<svg width="105" height="106" viewBox="0 0 105 106" fill="none" xmlns="http://www.w3.org/2000/svg">
<g filter="url(#filter0_b_50_608)">
<rect y="0.5" width="105" height="105" rx="52.5" fill="url(#paint0_linear_50_608)"/>
<g clip-path="url(#clip0_50_608)">
<path fill-rule="evenodd" clip-rule="evenodd" d="M51.4542 22.1679C50.6023 22.446 49.8565 23.0898 49.3712 23.9659C49.1574 24.3521 49.1071 24.6342 49.1059 25.4551C49.1046 26.3588 49.143 26.5374 49.4619 27.1138C49.8883 27.8846 50.7178 28.5755 51.4688 28.7859C52.2467 29.0037 53.3926 28.9009 54.0897 28.551C56.1191 27.5319 56.5739 24.7138 54.9725 23.0795C54.6939 22.7951 54.2279 22.4556 53.937 22.3253C53.2639 22.0235 52.119 21.951 51.4542 22.1679ZM51.6947 24.0248C50.2033 24.9341 50.7721 27.1223 52.5 27.1223C54.2191 27.1223 54.7892 24.9296 53.3053 24.0248C52.8102 23.7229 52.1898 23.7229 51.6947 24.0248ZM32.7636 29.9877C32.0693 30.1246 31.4269 30.4809 30.9116 31.0148C29.4309 32.5492 29.7064 35.1029 31.4792 36.2771C34.0373 37.9716 37.403 35.6955 36.7796 32.6928C36.4024 30.8758 34.5585 29.6337 32.7636 29.9877ZM70.9986 29.9908C68.9699 30.3837 67.7125 32.3755 68.274 34.3069C68.9345 36.579 71.5706 37.569 73.5208 36.2771C75.743 34.8052 75.4735 31.3566 73.0518 30.2747C72.3287 29.9517 71.6704 29.8607 70.9986 29.9908ZM51.9639 31.3949C51.7673 31.5193 51.03 32.2094 50.3257 32.9285C48.9415 34.3415 48.8356 34.569 49.2919 35.149C49.7011 35.6694 50.1689 35.5809 50.9177 34.8415L51.5469 34.2201V37.0328C51.5469 40.1074 51.575 39.9903 50.8375 39.9903C49.5421 39.9903 46.4791 41.2225 44.9783 42.3475L44.1882 42.9397L42.1798 40.9289L40.1716 38.918H41.0419C42.0466 38.918 42.285 38.8223 42.4853 38.3391C42.6747 37.8817 42.3946 37.29 41.934 37.1743C41.7605 37.1308 40.7294 37.128 39.6427 37.1682C37.0014 37.2659 37.1309 37.127 37.1309 39.8617C37.1309 41.7073 37.1503 41.889 37.3778 42.1783C37.6872 42.5717 38.3249 42.6087 38.6797 42.2539C38.8741 42.0595 38.918 41.8569 38.918 41.1524V40.289L40.8969 42.268L42.8759 44.2469L42.3178 45.0078C41.1743 46.5667 40.2734 48.8005 39.9998 50.7553C39.937 51.2046 39.8633 51.5943 39.8363 51.6214C39.8093 51.6484 38.5378 51.6562 37.0108 51.6385L34.2343 51.6065L34.8486 50.9345C35.3125 50.4271 35.4629 50.1718 35.4629 49.8921C35.4629 49.4063 35.0949 49.0451 34.5991 49.0444C34.2581 49.0439 34.0384 49.2253 32.7595 50.5634C31.9606 51.3992 31.2759 52.2041 31.2379 52.3522C31.128 52.7803 31.4212 53.1862 32.8729 54.6148C34.3439 56.0623 34.5642 56.1681 35.149 55.7081C35.6698 55.2984 35.581 54.8312 34.8393 54.0802L34.2156 53.4488L37.0727 53.4807L39.9298 53.5127L40.0178 54.2175C40.2465 56.0503 41.2195 58.4066 42.377 59.931L42.9985 60.7496L40.9583 62.79L38.918 64.8303V63.9591C38.918 62.9534 38.8224 62.715 38.3391 62.5148C37.8817 62.3253 37.2899 62.6054 37.1742 63.066C37.1307 63.2395 37.128 64.2707 37.1682 65.3573C37.2658 67.9987 37.1269 67.8692 39.8617 67.8692C41.7073 67.8692 41.889 67.8498 42.1783 67.6222C42.5717 67.3128 42.6087 66.6752 42.2539 66.3204C42.0595 66.1259 41.8568 66.0821 41.1532 66.0821H40.2907L42.3023 64.0679L44.3138 62.0537L45.0412 62.5874C46.5666 63.7068 48.8161 64.6097 50.7553 64.8811C51.2046 64.9439 51.5943 65.0176 51.6213 65.0445C51.6483 65.0715 51.656 66.3698 51.6384 67.9297L51.6064 70.7657L50.9345 70.1514C50.4271 69.6875 50.1718 69.5372 49.892 69.5372C49.4063 69.5372 49.045 69.9052 49.0443 70.4009C49.0438 70.7419 49.2253 70.9616 50.5634 72.2406C51.3991 73.0394 52.2041 73.7241 52.3521 73.7621C52.7802 73.8721 53.1861 73.5789 54.6147 72.1272C56.0623 70.6561 56.1681 70.4358 55.7081 69.8511C55.2989 69.3307 54.8311 69.4192 54.0823 70.1586L53.4531 70.78V67.8911C53.4531 65.6814 53.4882 64.9927 53.6021 64.9613C53.684 64.9388 54.1487 64.8587 54.6346 64.7833C55.6967 64.6187 56.0693 64.4541 56.2959 64.0499C56.4426 63.788 56.4433 63.6975 56.3002 63.4056C56.0195 62.8329 55.8599 62.799 54.4889 63.0209C51.7096 63.4708 49.3599 63.077 47.0426 61.773C45.78 61.0626 43.8183 59.1009 43.1079 57.8383C40.3813 52.9927 41.6084 47.1549 46.064 43.7759C49.3863 41.2563 54.0703 40.9871 57.8242 43.0998C59.1086 43.8228 61.0581 45.7723 61.7811 47.0567C63.8099 50.6615 63.6568 55.0262 61.3815 58.4489C61.0648 58.9252 60.284 59.7942 59.5815 60.4522C58.508 61.4578 58.3406 61.6659 58.3393 61.9969C58.3375 62.4645 58.7271 62.8653 59.1837 62.8653C59.3807 62.8653 59.7389 62.6828 60.0969 62.3998L60.6858 61.9342L62.7572 64.0082L64.8286 66.0821H63.9582C62.9534 66.0821 62.715 66.1777 62.5147 66.661C62.3253 67.1184 62.6054 67.7101 63.066 67.8258C63.2395 67.8693 64.2706 67.872 65.3573 67.8319C67.9986 67.7342 67.8691 67.8731 67.8691 65.1384C67.8691 63.2928 67.8497 63.1111 67.6222 62.8218C67.3128 62.4284 66.6751 62.3913 66.3203 62.7461C66.1259 62.9406 66.082 63.1432 66.082 63.8477V64.7111L64.0435 62.6725L62.0049 60.634L62.5631 59.8732C63.6916 58.3346 64.886 55.3252 64.8924 54.0038C64.8959 53.3148 64.8394 53.3269 67.9259 53.3615L70.7657 53.3936L70.1514 54.0656C69.6875 54.573 69.5371 54.8283 69.5371 55.108C69.5371 55.5938 69.9051 55.955 70.4009 55.9557C70.7419 55.9562 70.9616 55.7747 72.2405 54.4367C73.0394 53.6009 73.7241 52.796 73.7621 52.6479C73.872 52.2198 73.5788 51.8139 72.1271 50.3853C70.6561 48.9377 70.4358 48.8319 69.851 49.2919C69.3306 49.7012 69.4192 50.1689 70.1585 50.9177L70.78 51.5469H67.9076C64.7674 51.5469 64.8906 51.5759 64.8906 50.8376C64.8906 49.5663 63.6768 46.5261 62.5631 45.0078L62.0049 44.2469L64.0435 42.2084L66.082 40.1698V41.041C66.082 42.0466 66.1776 42.285 66.6609 42.4853C67.1183 42.6748 67.7101 42.3947 67.8258 41.9341C67.8693 41.7606 67.872 40.7294 67.8319 39.6427C67.7342 37.0014 67.8731 37.1309 65.1383 37.1309C63.2927 37.1309 63.111 37.1503 62.8218 37.3779C62.4283 37.6873 62.3913 38.3249 62.7461 38.6797C62.9405 38.8742 63.1432 38.918 63.8468 38.918H64.7093L62.6965 40.9334L60.6838 42.9488L59.898 42.3534C58.373 41.198 55.3755 39.9952 54.0038 39.9885C53.3156 39.985 53.3267 40.0365 53.3615 37.0146L53.3936 34.2344L54.0655 34.8486C54.5729 35.3126 54.8282 35.4629 55.108 35.4629C55.768 35.4629 56.1646 34.7666 55.8449 34.1691C55.6431 33.792 52.9015 31.3086 52.6091 31.2381C52.4292 31.1947 52.1873 31.2536 51.9639 31.3949ZM32.9628 31.7754C32.4474 31.8929 31.7763 32.598 31.7509 33.0485C31.6973 34.0032 31.9613 34.5276 32.6683 34.8697C33.2597 35.156 33.5733 35.1653 34.107 34.9121C34.9724 34.5015 35.3022 33.5617 34.8841 32.698C34.5136 31.9327 33.7922 31.5863 32.9628 31.7754ZM71.133 31.784C70.3816 31.9924 69.7895 32.9419 69.9404 33.6966C70.088 34.4348 70.8651 35.1055 71.5726 35.1055C72.0227 35.1055 72.8045 34.6579 73.0345 34.2687C73.7995 32.9737 72.5816 31.3822 71.133 31.784ZM51.1299 43.5323C50.281 43.6541 49.9239 44.6121 50.5453 45.1008C50.822 45.3185 50.9679 45.3367 51.9452 45.2762C54.1279 45.1408 55.9684 45.8348 57.5072 47.3737C60.3622 50.2287 60.3622 54.6522 57.5072 57.5073C54.6522 60.3623 50.2287 60.3623 47.3736 57.5073C44.3878 54.5215 44.5481 49.9526 47.7425 46.9853C48.6715 46.1224 48.7767 45.7874 48.2759 45.2867C47.722 44.7328 47.1303 44.9868 45.9225 46.2973C43.1071 49.3521 42.6633 53.5312 44.7731 57.1179C45.287 57.9915 46.8894 59.5939 47.763 60.1078C49.3996 61.0704 51.1503 61.5084 52.917 61.397C54.3441 61.3069 55.1921 61.0729 56.5508 60.3944C58.4062 59.4677 59.987 57.7269 60.7993 55.7155C61.8268 53.1719 61.5737 50.261 60.1077 47.7607C59.5991 46.8934 57.9958 45.2924 57.1159 44.7732C55.3043 43.7044 53.1068 43.2488 51.1299 43.5323ZM24.5012 49.1492C23.5892 49.4483 22.7667 50.1713 22.3297 51.0584C21.9491 51.8306 21.9497 53.1706 22.3307 53.944C23.3856 56.085 26.0584 56.6006 27.8676 55.0124C29.1231 53.91 29.2595 51.5815 28.1447 50.2791C27.518 49.547 26.6472 49.1328 25.6418 49.0885C25.1787 49.068 24.6654 49.0954 24.5012 49.1492ZM78.4373 49.2168C76.9514 49.7468 76.0898 50.9494 76.0898 52.4938C76.0898 53.8419 76.7091 54.8911 77.882 55.5293C79.6178 56.4741 81.773 55.7638 82.6649 53.953C82.8786 53.5191 82.9404 53.1932 82.9404 52.5C82.9404 51.4409 82.6574 50.7557 81.9115 50.01C81.0649 49.1633 79.5542 48.8184 78.4373 49.2168ZM24.6498 51.0698C23.5258 51.7551 23.5258 53.245 24.6498 53.9303C25.3787 54.3748 26.4605 54.1212 26.8983 53.4031C27.1977 52.9121 27.1901 52.0754 26.8817 51.5696C26.4511 50.8633 25.3813 50.6237 24.6498 51.0698ZM78.7431 51.0088C77.5815 51.5137 77.599 53.5075 78.7693 53.9965C79.6309 54.3565 80.5004 54.0841 80.9752 53.3053C81.8135 51.9304 80.2718 50.3442 78.7431 51.0088ZM32.3858 68.2771C29.8944 69.0892 29.1238 72.2313 30.9722 74.0408C32.9403 75.9673 36.2232 74.9874 36.7796 72.3073C37.1011 70.7588 36.3444 69.2129 34.9253 68.5185C34.1472 68.1378 33.1144 68.0397 32.3858 68.2771ZM70.5147 68.3331C68.3513 69.0804 67.4706 71.6303 68.7229 73.5209C69.6424 74.9092 71.5081 75.444 73.0136 74.751C75.925 73.4109 75.6351 69.2011 72.5678 68.278C71.8219 68.0535 71.2823 68.068 70.5147 68.3331ZM32.6592 70.1326C31.1126 70.8981 31.6217 73.2336 33.3408 73.2596C34.0496 73.2703 34.5724 72.946 34.8841 72.3021C35.3022 71.4384 34.9724 70.4986 34.107 70.0879C33.5717 69.8339 33.242 69.8442 32.6592 70.1326ZM70.8736 70.0927C70.0224 70.5123 69.7019 71.4469 70.1159 72.3021C70.8826 73.8857 73.2332 73.4049 73.2595 71.6593C73.2701 70.961 72.9467 70.428 72.3317 70.1304C71.7447 69.8462 71.3922 69.837 70.8736 70.0927ZM51.2617 76.2767C49.0087 77.1023 48.3226 80.1932 50.0131 81.9007C50.7669 82.662 51.4329 82.9405 52.5 82.9405C53.5671 82.9405 54.2331 82.662 54.9869 81.9007C56.6884 80.1821 55.98 77.0465 53.7158 76.275C53.0488 76.0478 51.8842 76.0485 51.2617 76.2767ZM51.5825 78.1105C50.5416 78.7452 50.6029 80.3096 51.6947 80.9753C52.4523 81.4373 53.4351 81.1624 53.9303 80.3502C54.3763 79.6187 54.1368 78.549 53.4305 78.1184C52.9178 77.8058 52.088 77.8022 51.5825 78.1105Z" fill="white"/>
</g>
</g>
<defs>
<filter id="filter0_b_50_608" x="-4" y="-3.5" width="113" height="113" filterUnits="userSpaceOnUse" color-interpolation-filters="sRGB">
<feFlood flood-opacity="0" result="BackgroundImageFix"/>
<feGaussianBlur in="BackgroundImageFix" stdDeviation="2"/>
<feComposite in2="SourceAlpha" operator="in" result="effect1_backgroundBlur_50_608"/>
<feBlend mode="normal" in="SourceGraphic" in2="effect1_backgroundBlur_50_608" result="shape"/>
</filter>
<linearGradient id="paint0_linear_50_608" x1="3.91155e-07" y1="53" x2="105" y2="53" gradientUnits="userSpaceOnUse">
<stop stop-color="#FFDA00"/>
<stop offset="1" stop-color="#F6931F"/>
</linearGradient>
<clipPath id="clip0_50_608">
<rect width="61" height="61" fill="white" transform="translate(22 22)"/>
</clipPath>
</defs>
</svg>
