<svg width="105" height="106" viewBox="0 0 105 106" fill="none" xmlns="http://www.w3.org/2000/svg">
<g filter="url(#filter0_b_50_615)">
<rect y="0.5" width="105" height="105" rx="52.5" fill="url(#paint0_linear_50_615)"/>
<g clip-path="url(#clip0_50_615)">
<path fill-rule="evenodd" clip-rule="evenodd" d="M28.095 25.9924C25.5507 27.3983 25.3033 31.0688 27.6542 32.537C28.5311 33.0846 28.625 33.6293 28.625 38.1757C28.625 41.454 28.8242 43.407 29.1969 43.7796C29.5114 44.0942 30.9053 44.3515 32.2945 44.3515C34.5944 44.3515 34.8208 44.4473 34.8255 45.4238C34.8284 46.0133 34.9637 47.3005 35.1262 48.2831L35.4217 50.0703H32.2983C29.4633 50.0703 29.0429 49.9382 27.7452 48.6406C25.9305 46.8258 23.8227 46.7276 22.1699 48.3808C19.5975 50.9533 21.5623 55.3124 25.2943 55.3124C25.8562 55.3124 26.9589 54.6691 27.7452 53.8828C29.0682 52.5598 29.4304 52.4531 32.5933 52.4535L36.0117 52.454L37.0516 55.3129L38.0914 58.1718H33.6475C30.0347 58.1718 29.1492 58.3129 28.9143 58.9257C28.7551 59.3403 28.625 61.8804 28.625 64.5706C28.625 68.9459 28.5187 69.5574 27.6171 70.3694C26.1492 71.6919 25.7227 73.1559 26.3122 74.8482C26.9117 76.5671 29.1564 77.902 30.6742 77.4426C34.0316 76.4256 34.9361 72.8962 32.4375 70.5624C31.0516 69.2676 31.0078 69.0942 31.0078 64.8909V60.5546H35.1024H39.197L42.1317 63.5746C44.0813 65.5809 46.1477 67.1231 48.2889 68.1701L51.5119 69.7461L54.6877 68.1339C56.6259 67.1503 59.0149 65.3593 60.8182 63.5384L63.7724 60.5546H67.8823H71.9922V64.8999C71.9922 69.0484 71.9274 69.3191 70.5625 70.8736C68.9493 72.7108 68.8383 73.3761 69.8252 75.2847C71.2159 77.9739 74.7343 78.2089 76.4714 75.7289C77.6752 74.0104 77.4312 72.0822 75.8209 70.5777C74.4336 69.2814 74.405 69.1566 74.272 63.8339L74.1367 58.4101L69.4459 58.2733C65.235 58.1504 64.7894 58.0527 65.0882 57.3202C65.2712 56.8713 65.7401 55.5927 66.1305 54.4785L66.8396 52.4531H70.3323C73.5777 52.4531 73.9265 52.5541 75.2547 53.8828C77.282 55.91 79.5552 55.6718 81.6068 53.217C82.3374 52.343 82.914 48.5209 82.2087 49.2258C82.0615 49.373 81.3871 48.9799 80.7095 48.3522C78.9919 46.7605 77.0313 46.8639 75.2547 48.6406C73.957 49.9382 73.5372 50.0703 70.6993 50.0703H67.5735L67.8766 47.859C68.0434 46.6433 68.1797 45.3666 68.1797 45.0225C68.1797 44.5879 69.0894 44.3539 71.1582 44.2552L74.1367 44.1132L74.2725 38.9273C74.405 33.8695 74.4431 33.7089 75.8214 32.4217C78.3033 30.1037 77.3869 26.571 74.0414 25.5573C71.9984 24.9387 69.1328 27.4283 69.1328 29.8221C69.1328 30.1938 69.7762 31.2308 70.5625 32.1262C71.9145 33.666 71.9922 33.9777 71.9922 37.8617V41.9687H70.2775H68.5633L68.7287 39.2285L68.8945 36.4882L64.3672 36.2304C59.3461 35.944 57.1458 35.0905 53.9228 32.1787C52.9197 31.2727 51.8298 30.5312 51.5 30.5312C51.1702 30.5312 50.0803 31.2727 49.0771 32.1787C45.9142 35.0361 43.6605 35.9068 38.6328 36.2128L34.1055 36.4882L34.2656 39.2285L34.4257 41.9687H32.7168H31.0078V37.8707C31.0078 33.9319 31.0636 33.7213 32.4375 32.4374C35.8668 29.234 32.1673 23.7426 28.095 25.9924ZM28.5916 28.4267C27.7438 29.4484 28.5978 30.7695 30.1066 30.7695C30.9449 30.7695 31.2885 30.4688 31.4067 29.6319C31.6616 27.8315 29.7611 27.018 28.5916 28.4267ZM71.9588 28.4267C71.111 29.4484 71.965 30.7695 73.4738 30.7695C74.3121 30.7695 74.6557 30.4688 74.7739 29.6319C75.0288 27.8315 73.1283 27.018 71.9588 28.4267ZM50.2981 34.3556C48.5324 36.3062 43.5967 38.2868 39.9114 38.5231L36.453 38.7452L36.8362 42.8589C37.3222 48.0725 38.7548 53.8499 40.397 57.2187C41.9921 60.4903 45.8012 64.3547 49.0586 66.0056L51.5414 67.2637L54.0224 65.9345C61.1833 62.0992 65.1549 54.4132 66.1004 42.5644L66.414 38.6328H64.0474C60.6643 38.6328 57.3384 37.51 54.1911 35.3054C52.6876 34.2522 51.3932 33.3906 51.3146 33.3906C51.2355 33.3906 50.778 33.8247 50.2981 34.3556ZM48.6039 45.7445C47.8376 46.5108 47.2109 47.5936 47.2109 48.1511C47.2109 49.6518 48.4967 51.8669 49.5656 52.2057C50.3257 52.4473 50.5273 53.0102 50.6431 55.2181C50.7494 57.2511 50.9648 57.9335 51.5 57.9335C52.0352 57.9335 52.2506 57.2511 52.3568 55.2181C52.4726 53.0102 52.6742 52.4473 53.4343 52.2057C53.949 52.0427 54.703 51.265 55.1095 50.4782C57.3236 46.1968 52.0147 42.3337 48.6039 45.7445ZM50.1656 47.3062C48.6468 48.825 50.5292 51.1001 52.4531 50.0703C54.0763 49.2015 53.3714 46.7343 51.5 46.7343C51.0806 46.7343 50.4801 46.9917 50.1656 47.3062ZM21.1201 51.2617C21.1253 52.3101 21.223 52.6828 21.3369 52.0899C21.4508 51.4971 21.4465 50.6393 21.3274 50.1837C21.2082 49.7281 21.1148 50.2132 21.1201 51.2617ZM23.5658 50.2809C23.0583 51.6034 23.6001 52.6913 24.7672 52.6913C26.2703 52.6913 27.1219 51.3684 26.2755 50.3486C25.493 49.4059 23.9165 49.3664 23.5658 50.2809ZM76.7435 50.3257C75.8781 51.3689 76.714 52.6913 78.2394 52.6913C79.1878 52.6913 79.3789 52.4516 79.3789 51.2617C79.3789 50.1751 79.1401 49.7977 78.3838 49.69C77.8367 49.6118 77.0985 49.8977 76.7435 50.3257ZM28.7384 72.5459C27.4617 73.8226 28.7556 75.6531 30.536 75.0884C31.2842 74.851 31.5025 74.4464 31.3929 73.5C31.2294 72.0855 29.7359 71.5485 28.7384 72.5459ZM72.1056 72.5459C70.8289 73.8226 72.1227 75.6531 73.9032 75.0884C74.6514 74.851 74.8697 74.4464 74.76 73.5C74.5966 72.0855 73.103 71.5485 72.1056 72.5459Z" fill="white"/>
</g>
</g>
<defs>
<filter id="filter0_b_50_615" x="-4" y="-3.5" width="113" height="113" filterUnits="userSpaceOnUse" color-interpolation-filters="sRGB">
<feFlood flood-opacity="0" result="BackgroundImageFix"/>
<feGaussianBlur in="BackgroundImageFix" stdDeviation="2"/>
<feComposite in2="SourceAlpha" operator="in" result="effect1_backgroundBlur_50_615"/>
<feBlend mode="normal" in="SourceGraphic" in2="effect1_backgroundBlur_50_615" result="shape"/>
</filter>
<linearGradient id="paint0_linear_50_615" x1="3.91155e-07" y1="53" x2="105" y2="53" gradientUnits="userSpaceOnUse">
<stop stop-color="#FFDA00"/>
<stop offset="1" stop-color="#F6931F"/>
</linearGradient>
<clipPath id="clip0_50_615">
<rect width="61" height="61" fill="white" transform="translate(21 21)"/>
</clipPath>
</defs>
</svg>
