<svg width="105" height="106" viewBox="0 0 105 106" fill="none" xmlns="http://www.w3.org/2000/svg">
<g filter="url(#filter0_b_50_622)">
<rect y="0.5" width="105" height="105" rx="52.5" fill="url(#paint0_linear_50_622)"/>
<path fill-rule="evenodd" clip-rule="evenodd" d="M48.1013 23.2023C47.7904 23.3981 46.5616 26.1279 44.1074 32.076C43.4103 33.7651 42.5515 35.808 42.1988 36.6159C41.5228 38.164 38.3899 45.6043 37.3633 48.0992C37.0311 48.907 36.3147 50.6209 35.7711 51.9079C34.7467 54.3338 34.744 55.0268 35.7568 55.4116C35.9954 55.5024 38.6684 55.5767 41.6965 55.5767C47.0998 55.5767 47.202 55.5871 47.202 56.1343C47.202 56.4411 46.7841 59.6556 46.2734 63.2779C43.9394 79.8339 43.6843 81.8221 43.8342 82.2905C44.0386 82.928 44.9565 83.2212 45.4574 82.8094C45.6702 82.6345 46.8919 80.8522 48.1722 78.8482C49.4527 76.8445 50.774 74.7845 51.1083 74.2704C51.4427 73.7563 52.1378 72.6747 52.6537 71.8669C57.2605 64.6487 66.2625 50.5659 67.8461 48.0992C70.2883 44.295 70.2985 44.2685 69.6031 43.5798C69.0665 43.0484 68.7656 43.0251 62.4368 43.0251C58.8034 43.0251 55.8306 42.9643 55.8306 42.89C55.8306 42.8158 57.8934 38.6706 60.4145 33.6783C62.9357 28.686 64.9984 24.4291 64.9984 24.2184C64.9984 24.0077 64.8078 23.6467 64.5748 23.4157C64.2086 23.0533 63.0799 22.9967 56.2833 23.0001C51.9558 23.0025 48.2741 23.0933 48.1013 23.2023ZM47.7526 29.4722C46.8208 31.7122 45.7222 34.3259 45.3116 35.2806C44.9009 36.2353 43.935 38.5186 43.1649 40.3546C40.3024 47.1792 39.8365 48.2797 38.9456 50.3152C38.4443 51.4608 38.0342 52.5723 38.0342 52.7854C38.0342 53.112 38.9259 53.1732 43.6872 53.1732C49.052 53.1732 49.3549 53.2001 49.6269 53.7038C49.841 54.0998 49.7092 55.6413 49.1076 59.7793C47.8387 68.5058 46.8787 75.9085 47.0003 76.0289C47.1271 76.1545 46.748 76.7332 54.885 63.9888C58.2609 58.7012 61.2962 53.9543 61.6303 53.4402C63.8489 50.0251 66.6163 45.6433 66.6163 45.5453C66.6163 45.4812 63.6071 45.4286 59.9291 45.4286C53.0236 45.4286 52.5949 45.3643 52.5949 44.33C52.5949 44.0784 54.6576 39.7901 57.1788 34.801C59.7 29.8116 61.7627 25.6552 61.7627 25.5647C61.7627 25.4739 58.9916 25.3996 55.6049 25.3996H49.4468L47.7526 29.4722Z" fill="white"/>
</g>
<defs>
<filter id="filter0_b_50_622" x="-4" y="-3.5" width="113" height="113" filterUnits="userSpaceOnUse" color-interpolation-filters="sRGB">
<feFlood flood-opacity="0" result="BackgroundImageFix"/>
<feGaussianBlur in="BackgroundImageFix" stdDeviation="2"/>
<feComposite in2="SourceAlpha" operator="in" result="effect1_backgroundBlur_50_622"/>
<feBlend mode="normal" in="SourceGraphic" in2="effect1_backgroundBlur_50_622" result="shape"/>
</filter>
<linearGradient id="paint0_linear_50_622" x1="3.91155e-07" y1="53" x2="105" y2="53" gradientUnits="userSpaceOnUse">
<stop stop-color="#FFDA00"/>
<stop offset="1" stop-color="#F6931F"/>
</linearGradient>
</defs>
</svg>
