<svg width="105" height="106" viewBox="0 0 105 106" fill="none" xmlns="http://www.w3.org/2000/svg">
<g filter="url(#filter0_b_48_364)">
<rect y="0.5" width="105" height="105" rx="52.5" fill="url(#paint0_linear_48_364)"/>
<path fill-rule="evenodd" clip-rule="evenodd" d="M45.5862 26.5523C42.8282 29.6062 40.537 32.3078 40.4948 32.5558C40.3317 33.5166 40.8051 33.6728 43.8815 33.6728H46.7828V35.7184C46.7828 37.9074 47.0347 38.453 47.9181 38.1772C48.5238 37.9883 48.6508 37.4177 48.6546 34.8673C48.6593 31.818 48.6698 31.8295 45.837 31.8295C44.5523 31.8295 43.5013 31.7726 43.5013 31.703C43.5013 31.5012 50.8164 23.5346 51.0018 23.5346C51.1872 23.5346 58.5022 31.5012 58.5022 31.703C58.5022 31.7726 57.4512 31.8295 56.1665 31.8295C54.0973 31.8295 53.8032 31.8804 53.5882 32.2751C53.442 32.5438 53.3456 34.7406 53.3456 37.8037V42.8864L51.7384 44.4433C50.8546 45.2995 49.8017 46.5184 49.399 47.1521L48.6668 48.3041L48.659 44.7327C48.6506 40.73 48.5676 40.2005 47.9181 39.9979C46.8414 39.6618 46.7828 40.0041 46.7828 46.6288C46.7828 51.517 46.7202 52.8194 46.4898 52.7198C42.9606 51.1919 41.9825 50.9859 37.3486 50.7947L33.8914 50.6518V48.1696C33.8914 46.2203 33.8124 45.6097 33.5232 45.3251C32.8941 44.7067 33.7444 44.0788 24.2168 52.1972C22.4476 53.7048 21 55.1106 21 55.3214C21 55.8429 21.3101 56.1825 23.2914 57.8304C25.0495 59.2929 25.3943 59.4452 25.8753 58.9724C26.416 58.4408 26.1455 57.8935 24.7284 56.6525L23.3003 55.4021L27.6583 51.676L32.0163 47.95V49.982C32.0163 51.2551 32.1213 52.1171 32.2975 52.2903C32.485 52.4747 33.5213 52.5675 35.4032 52.5687C41.1443 52.5726 43.9551 53.2154 47.0373 55.2297C51.0222 57.8339 53.3456 62.1251 53.3456 66.88C53.3456 68.5129 53.4282 68.974 53.7997 69.4191C54.1693 69.862 54.3329 69.9157 54.6786 69.7081C55.071 69.4726 55.1129 68.8707 55.225 61.874L55.3464 54.2949L56.017 52.8585C56.797 51.1882 58.4427 49.5535 60.0921 48.8104C61.0294 48.3878 61.7236 48.2995 64.6549 48.2295L68.1121 48.1468V51.117C68.1121 54.1717 68.2413 54.6406 69.0825 54.6406C69.4317 54.6406 80.3411 45.5576 80.8242 44.8645C80.9189 44.7288 80.9979 44.4512 81 44.2479C81.003 43.9366 70.3651 34.6122 69.3839 34.0664C69.2034 33.9659 68.8437 33.9954 68.584 34.132C68.1539 34.3583 68.1121 34.6104 68.1121 36.9862V39.5919L64.6549 39.7348C60.021 39.926 59.0429 40.132 55.5137 41.6599C55.2854 41.7585 55.2208 40.8892 55.2208 37.7297V33.6728H58.122C61.204 33.6728 61.6704 33.5177 61.5087 32.5472C61.4002 31.8959 51.483 21 50.9987 21C50.7746 21 48.4118 23.4242 45.5862 26.5523ZM69.9872 38.9221C69.9872 40.1952 69.8822 41.0571 69.706 41.2304C69.5171 41.4161 68.4572 41.5069 66.477 41.5069C62.6975 41.5069 60.0323 41.8406 58.0709 42.5594C53.6768 44.1696 50.0771 48.1445 49.0348 52.5366L48.6923 53.9795L50.2822 55.5198C51.1567 56.3668 52.2018 57.5783 52.6045 58.212L53.3367 59.3641L53.3489 57.8664C53.3932 52.3816 55.1605 49.1894 59.2054 47.2876L60.9633 46.4608L65.1973 46.3855C68.5886 46.3251 69.4847 46.3737 69.7006 46.6293C69.8534 46.8104 69.999 47.97 70.0372 49.3136L70.1044 51.6788L74.0891 48.2959C76.2806 46.4353 78.2136 44.7829 78.3845 44.6242C78.6383 44.3885 77.8962 43.6523 74.3413 40.6129L69.9872 36.8901V38.9221ZM32.3029 57.6892C32.1501 57.8703 32.0046 59.0302 31.9663 60.3735L31.8991 62.7387L30.1412 61.2235C28.8401 60.1018 28.2309 59.7233 27.7973 59.7664C27.3578 59.8104 27.1935 59.9765 27.1398 60.4316C27.0784 60.9514 27.4579 61.3714 29.7924 63.3694C33.6394 66.6618 33.8914 66.5885 33.8914 62.177V59.2067L37.3486 59.2894C40.2703 59.3592 40.9755 59.4486 41.9019 59.8659C43.3619 60.524 45.0556 62.0919 45.7397 63.4189C46.5885 65.0654 46.779 66.8988 46.7809 73.4309C46.7823 77.7901 46.8596 79.5088 47.064 79.7097C47.4578 80.0968 54.5457 80.0968 54.9395 79.7097C55.1359 79.5166 55.2208 78.2668 55.2208 75.5666V71.7L54.5982 71.5465C53.5407 71.2855 53.3456 71.8532 53.3456 75.1915V78.1429H51.0018H48.6579L48.6501 72.7857C48.6459 69.8394 48.5508 66.7295 48.4387 65.8751C48.0023 62.5482 45.9734 59.8406 42.7982 58.3475L41.0402 57.5207L36.8062 57.4454C33.4149 57.385 32.5188 57.4336 32.3029 57.6892Z" fill="white"/>
</g>
<defs>
<filter id="filter0_b_48_364" x="-4" y="-3.5" width="113" height="113" filterUnits="userSpaceOnUse" color-interpolation-filters="sRGB">
<feFlood flood-opacity="0" result="BackgroundImageFix"/>
<feGaussianBlur in="BackgroundImageFix" stdDeviation="2"/>
<feComposite in2="SourceAlpha" operator="in" result="effect1_backgroundBlur_48_364"/>
<feBlend mode="normal" in="SourceGraphic" in2="effect1_backgroundBlur_48_364" result="shape"/>
</filter>
<linearGradient id="paint0_linear_48_364" x1="3.91155e-07" y1="53" x2="105" y2="53" gradientUnits="userSpaceOnUse">
<stop stop-color="#FFDA00"/>
<stop offset="1" stop-color="#F6931F"/>
</linearGradient>
</defs>
</svg>
