<svg width="105" height="106" viewBox="0 0 105 106" fill="none" xmlns="http://www.w3.org/2000/svg">
<g filter="url(#filter0_b_48_370)">
<rect y="0.5" width="105" height="105" rx="52.5" fill="url(#paint0_linear_48_370)"/>
<path fill-rule="evenodd" clip-rule="evenodd" d="M38.6783 30.9725C25.0924 38.4768 24.9646 38.5737 25.003 41.3664C25.029 43.2554 25.8821 44.3405 28.4961 45.809L30.7778 47.0907L28.714 48.2618C25.806 49.912 25.066 50.873 25.066 52.9982C25.066 55.1235 25.806 56.0844 28.714 57.7347L30.7778 58.9058L28.4961 60.1875C25.8733 61.6609 25.029 62.7411 25.0026 64.6555C24.9649 67.3863 25.2843 67.6275 38.7878 75.0792C48.1216 80.2295 51.6354 82 52.5226 82C54.0801 82 77.7849 69.0129 79.1058 67.4362C80.1595 66.1781 80.3077 63.7218 79.4128 62.3499C79.097 61.8657 77.812 60.8927 76.5569 60.1875L74.2752 58.9058L76.339 57.7347C79.247 56.0844 79.987 55.1235 79.987 52.9982C79.987 50.873 79.247 49.912 76.339 48.2618L74.2752 47.0907L76.5569 45.809C77.812 45.1037 79.097 44.1308 79.4128 43.6466C80.1557 42.5077 80.1479 40.1179 79.3973 38.8415C78.551 37.4024 54.26 23.9947 52.5086 24C51.5964 24.0028 48.1575 25.7366 38.6783 30.9725ZM40.0285 33.5363C28.6492 39.864 28.0585 40.2421 28.0585 41.2012C28.0585 42.1608 28.6425 42.5335 40.0285 48.8375C46.6119 52.4826 52.2361 55.4652 52.5265 55.4652C52.817 55.4652 58.4411 52.4826 65.0246 48.8375C76.4094 42.5343 76.9945 42.1608 76.9945 41.2016C76.9945 40.2421 76.4073 39.8682 64.9123 33.5094C58.2672 29.8336 52.643 26.8383 52.4142 26.8531C52.1857 26.868 46.6119 29.8753 40.0285 33.5363ZM31.0851 50.2806C28.1535 51.945 27.5047 52.669 28.0954 53.6172C28.6485 54.5046 51.4721 67.1065 52.5265 67.1065C53.5809 67.1065 76.4045 54.5046 76.9576 53.6172C77.5536 52.6601 76.8907 51.9365 73.8866 50.2653L71.1986 48.7707L62.5904 53.5369C55.4454 57.4932 53.7344 58.3034 52.5265 58.3034C51.3186 58.3034 49.6058 57.4921 42.4478 53.5288C37.7049 50.9027 33.7946 48.7647 33.7579 48.7774C33.7213 48.7905 32.5187 49.4667 31.0851 50.2806ZM30.6989 62.3096C28.3912 63.6263 28.0585 63.9422 28.0585 64.8143C28.0585 65.7604 28.6883 66.1597 40.1672 72.4917C46.827 76.165 52.3913 79.1706 52.5321 79.1706C52.673 79.1706 58.2344 76.159 64.8911 72.4782C76.3013 66.1693 76.9945 65.7297 76.9945 64.8012C76.9945 63.9453 76.6485 63.6189 74.3541 62.3096C72.9019 61.4805 71.5063 60.7972 71.2528 60.7909C70.9993 60.7845 67.0387 62.8755 62.4514 65.4379C55.2109 69.4818 53.9016 70.0962 52.5265 70.0962C51.1514 70.0962 49.8421 69.4818 42.6016 65.4379C38.0143 62.8755 34.0537 60.7845 33.8002 60.7909C33.5467 60.7972 32.1512 61.4805 30.6989 62.3096Z" fill="white"/>
</g>
<defs>
<filter id="filter0_b_48_370" x="-4" y="-3.5" width="113" height="113" filterUnits="userSpaceOnUse" color-interpolation-filters="sRGB">
<feFlood flood-opacity="0" result="BackgroundImageFix"/>
<feGaussianBlur in="BackgroundImageFix" stdDeviation="2"/>
<feComposite in2="SourceAlpha" operator="in" result="effect1_backgroundBlur_48_370"/>
<feBlend mode="normal" in="SourceGraphic" in2="effect1_backgroundBlur_48_370" result="shape"/>
</filter>
<linearGradient id="paint0_linear_48_370" x1="3.91155e-07" y1="53" x2="105" y2="53" gradientUnits="userSpaceOnUse">
<stop stop-color="#FFDA00"/>
<stop offset="1" stop-color="#F6931F"/>
</linearGradient>
</defs>
</svg>
