<svg width="39" height="39" viewBox="0 0 39 39" fill="none" xmlns="http://www.w3.org/2000/svg">
<rect x="0.5" y="0.600098" width="38" height="38" rx="19" fill="white" fill-opacity="0.05"/>
<path d="M15.2833 13.7669C15.2831 14.2089 15.1073 14.6327 14.7945 14.9451C14.4818 15.2575 14.0578 15.4329 13.6158 15.4327C13.1738 15.4325 12.7499 15.2567 12.4375 14.944C12.1251 14.6312 11.9497 14.2072 11.95 13.7652C11.9502 13.3232 12.126 12.8993 12.4387 12.5869C12.7514 12.2745 13.1754 12.0991 13.6175 12.0994C14.0595 12.0996 14.4833 12.2754 14.7957 12.5881C15.1081 12.9008 15.2835 13.3248 15.2833 13.7669ZM15.3333 16.6669H12V27.1002H15.3333V16.6669ZM20.6 16.6669H17.2833V27.1002H20.5666V21.6252C20.5666 18.5752 24.5416 18.2919 24.5416 21.6252V27.1002H27.8333V20.4919C27.8333 15.3502 21.95 15.5419 20.5666 18.0669L20.6 16.6669Z" fill="white"/>
</svg>
